<svg xmlns="http://www.w3.org/2000/svg" width="960" height="494" viewBox="0 0 960 494">
  <style>
    .title { font: 700 18px -apple-system, BlinkMacSystemFont, Segoe UI, sans-serif; fill: #111827; }
    .label { font: 700 12px -apple-system, BlinkMacSystemFont, Segoe UI, sans-serif; fill: #111827; }
    .meta { font: 11px -apple-system, BlinkMacSystemFont, Segoe UI, sans-serif; fill: #4b5563; }
  </style>
  <rect width="100%" height="100%" fill="#f8fafc"/>
  <text x="18" y="24" class="title">Issue 13150 synthetic fixture waveform review</text>

  <g>
    <text x="18" y="70.0" class="label">f1_sam_solo</text>
    <text x="18" y="90.0" class="meta">1 spk / 10000 ms</text>
    <line x1="150" y1="78.0" x2="932" y2="78.0" stroke="#ccd3dd" stroke-width="1"/>
    <rect x="150.0" y="39.0" width="782.0" height="10" fill="#3867d6" opacity="0.75"/>
    <polygon points="150.0,67.2 152.5,56.4 154.9,57.8 157.4,58.8 159.8,66.4 162.3,64.1 164.7,65.5 167.2,64.8 169.6,61.6 172.1,57.3 174.5,56.4 177.0,58.4 179.4,64.4 181.9,64.6 184.3,65.5 186.8,66.8 189.2,65.8 191.7,60.8 194.1,59.1 196.6,58.0 199.0,64.0 201.5,67.3 203.9,67.1 206.4,66.7 208.8,67.0 211.3,63.1 213.7,63.1 216.2,60.3 218.6,64.6 221.1,69.1 223.5,67.9 226.0,68.3 228.4,67.8 230.9,65.5 233.3,61.7 235.8,60.7 238.3,63.6 240.7,68.4 243.2,67.4 245.6,67.8 248.1,66.7 250.5,64.4 253.0,60.4 255.4,57.1 257.9,59.8 260.3,65.8 262.8,65.3 265.2,64.8 267.7,65.7 270.1,64.6 272.6,58.5 275.0,56.1 277.5,54.6 279.9,62.2 282.4,65.5 284.8,65.4 287.3,63.9 289.7,65.0 292.2,62.1 294.6,57.3 297.1,57.6 299.5,61.8 302.0,66.3 304.4,66.1 306.9,66.9 309.3,66.3 311.8,62.3 314.2,60.7 316.7,61.8 319.1,61.8 321.6,67.2 324.1,67.8 326.5,68.7 329.0,68.6 331.4,66.9 333.9,63.4 336.3,60.0 338.8,63.9 341.2,68.0 343.7,68.1 346.1,68.2 348.6,69.9 351.0,68.0 353.5,62.5 355.9,62.3 358.4,61.2 360.8,65.3 363.3,68.1 365.7,67.6 368.2,68.0 370.6,66.2 373.1,62.6 375.5,55.1 378.0,59.8 380.4,58.0 382.9,64.5 385.3,66.8 387.8,66.6 390.2,65.5 392.7,64.7 395.1,59.2 397.6,55.4 400.0,60.3 402.5,65.2 404.9,66.2 407.4,68.0 409.8,66.0 412.3,65.9 414.8,60.7 417.2,57.7 419.7,60.1 422.1,65.2 424.6,67.4 427.0,67.3 429.5,67.7 431.9,67.7 434.4,63.3 436.8,60.8 439.3,61.1 441.7,65.5 444.2,68.5 446.6,68.1 449.1,68.7 451.5,67.6 454.0,63.1 456.4,61.2 458.9,61.1 461.3,64.2 463.8,67.2 466.2,68.8 468.7,67.0 471.1,66.7 473.6,62.3 476.0,59.5 478.5,57.5 480.9,60.4 483.4,64.7 485.8,65.6 488.3,65.7 490.7,64.1 493.2,65.4 495.6,60.0 498.1,57.7 500.6,57.4 503.0,64.5 505.5,65.5 507.9,64.9 510.4,64.4 512.8,64.7 515.3,60.0 517.7,58.5 520.2,58.5 522.6,62.7 525.1,66.5 527.5,66.6 530.0,66.9 532.4,67.0 534.9,62.3 537.3,60.0 539.8,60.7 542.2,62.8 544.7,68.8 547.1,69.6 549.6,68.9 552.0,67.7 554.5,67.2 556.9,60.6 559.4,60.5 561.8,65.7 564.3,67.3 566.7,67.8 569.2,69.3 571.6,67.3 574.1,66.1 576.5,62.4 579.0,60.0 581.4,58.2 583.9,62.5 586.4,67.5 588.8,65.4 591.3,65.5 593.7,65.3 596.2,61.6 598.6,59.6 601.1,59.6 603.5,62.5 606.0,64.0 608.4,65.2 610.9,65.7 613.3,64.4 615.8,62.6 618.2,56.0 620.7,56.6 623.1,62.1 625.6,65.9 628.0,66.4 630.5,65.0 632.9,65.6 635.4,64.5 637.8,59.1 640.3,59.7 642.7,60.6 645.2,65.3 647.6,67.6 650.1,67.4 652.5,67.1 655.0,68.2 657.4,65.1 659.9,63.6 662.3,61.0 664.8,64.7 667.2,68.2 669.7,68.1 672.2,68.0 674.6,67.7 677.1,65.3 679.5,61.5 682.0,59.3 684.4,64.2 686.9,66.3 689.3,67.4 691.8,66.4 694.2,66.0 696.7,61.9 699.1,59.9 701.6,57.1 704.0,57.6 706.5,66.1 708.9,65.4 711.4,64.6 713.8,65.3 716.3,64.0 718.7,58.3 721.2,54.9 723.6,56.6 726.1,60.6 728.5,65.1 731.0,65.5 733.4,65.0 735.9,66.5 738.3,58.9 740.8,58.3 743.2,59.4 745.7,64.2 748.1,66.0 750.6,67.4 753.0,66.1 755.5,67.6 757.9,63.6 760.4,60.2 762.9,58.7 765.3,61.1 767.8,66.6 770.2,67.7 772.7,68.1 775.1,68.7 777.6,67.1 780.0,64.0 782.5,60.2 784.9,62.2 787.4,68.7 789.8,67.1 792.3,67.7 794.7,67.3 797.2,66.7 799.6,60.5 802.1,58.9 804.5,60.2 807.0,62.3 809.4,65.5 811.9,65.4 814.3,64.9 816.8,64.8 819.2,58.3 821.7,55.9 824.1,57.1 826.6,58.6 829.0,66.6 831.5,65.7 833.9,64.5 836.4,64.3 838.8,60.0 841.3,58.7 843.7,55.6 846.2,59.2 848.7,65.7 851.1,66.0 853.6,66.2 856.0,66.3 858.5,66.5 860.9,61.3 863.4,57.6 865.8,60.1 868.3,64.9 870.7,66.8 873.2,67.1 875.6,68.4 878.1,68.3 880.5,63.5 883.0,59.9 885.4,62.2 887.9,64.7 890.3,68.7 892.8,68.2 895.2,68.7 897.7,67.3 900.1,64.6 902.6,61.6 905.0,59.8 907.5,63.1 909.9,66.4 912.4,66.3 914.8,67.2 917.3,66.1 919.7,61.2 922.2,60.0 924.6,57.9 927.1,62.5 929.5,64.8 932.0,71.3 932.0,84.7 929.5,91.2 927.1,93.5 924.6,98.1 922.2,96.0 919.7,94.8 917.3,89.9 914.8,88.8 912.4,89.7 909.9,89.6 907.5,92.9 905.0,96.2 902.6,94.4 900.1,91.4 897.7,88.7 895.2,87.3 892.8,87.8 890.3,87.3 887.9,91.3 885.4,93.8 883.0,96.1 880.5,92.5 878.1,87.7 875.6,87.6 873.2,88.9 870.7,89.2 868.3,91.1 865.8,95.9 863.4,98.4 860.9,94.7 858.5,89.5 856.0,89.7 853.6,89.8 851.1,90.0 848.7,90.3 846.2,96.8 843.7,100.4 841.3,97.3 838.8,96.0 836.4,91.7 833.9,91.5 831.5,90.3 829.0,89.4 826.6,97.4 824.1,98.9 821.7,100.1 819.2,97.7 816.8,91.2 814.3,91.1 811.9,90.6 809.4,90.5 807.0,93.7 804.5,95.8 802.1,97.1 799.6,95.5 797.2,89.3 794.7,88.7 792.3,88.3 789.8,88.9 787.4,87.3 784.9,93.8 782.5,95.8 780.0,92.0 777.6,88.9 775.1,87.3 772.7,87.9 770.2,88.3 767.8,89.4 765.3,94.9 762.9,97.3 760.4,95.8 757.9,92.4 755.5,88.4 753.0,89.9 750.6,88.6 748.1,90.0 745.7,91.8 743.2,96.6 740.8,97.7 738.3,97.1 735.9,89.5 733.4,91.0 731.0,90.5 728.5,90.9 726.1,95.4 723.6,99.4 721.2,101.1 718.7,97.7 716.3,92.0 713.8,90.7 711.4,91.4 708.9,90.6 706.5,89.9 704.0,98.4 701.6,98.9 699.1,96.1 696.7,94.1 694.2,90.0 691.8,89.6 689.3,88.6 686.9,89.7 684.4,91.8 682.0,96.7 679.5,94.5 677.1,90.7 674.6,88.3 672.2,88.0 669.7,87.9 667.2,87.8 664.8,91.3 662.3,95.0 659.9,92.4 657.4,90.9 655.0,87.8 652.5,88.9 650.1,88.6 647.6,88.4 645.2,90.7 642.7,95.4 640.3,96.3 637.8,96.9 635.4,91.5 632.9,90.4 630.5,91.0 628.0,89.6 625.6,90.1 623.1,93.9 620.7,99.4 618.2,100.0 615.8,93.4 613.3,91.6 610.9,90.3 608.4,90.8 606.0,92.0 603.5,93.5 601.1,96.4 598.6,96.4 596.2,94.4 593.7,90.7 591.3,90.5 588.8,90.6 586.4,88.5 583.9,93.5 581.4,97.8 579.0,96.0 576.5,93.6 574.1,89.9 571.6,88.7 569.2,86.7 566.7,88.2 564.3,88.7 561.8,90.3 559.4,95.5 556.9,95.4 554.5,88.8 552.0,88.3 549.6,87.1 547.1,86.4 544.7,87.2 542.2,93.2 539.8,95.3 537.3,96.0 534.9,93.7 532.4,89.0 530.0,89.1 527.5,89.4 525.1,89.5 522.6,93.3 520.2,97.5 517.7,97.5 515.3,96.0 512.8,91.3 510.4,91.6 507.9,91.1 505.5,90.5 503.0,91.5 500.6,98.6 498.1,98.3 495.6,96.0 493.2,90.6 490.7,91.9 488.3,90.3 485.8,90.4 483.4,91.3 480.9,95.6 478.5,98.5 476.0,96.5 473.6,93.7 471.1,89.3 468.7,89.0 466.2,87.2 463.8,88.8 461.3,91.8 458.9,94.9 456.4,94.8 454.0,92.9 451.5,88.4 449.1,87.3 446.6,87.9 444.2,87.5 441.7,90.5 439.3,94.9 436.8,95.2 434.4,92.7 431.9,88.3 429.5,88.3 427.0,88.7 424.6,88.6 422.1,90.8 419.7,95.9 417.2,98.3 414.8,95.3 412.3,90.1 409.8,90.0 407.4,88.0 404.9,89.8 402.5,90.8 400.0,95.7 397.6,100.6 395.1,96.8 392.7,91.3 390.2,90.5 387.8,89.4 385.3,89.2 382.9,91.5 380.4,98.0 378.0,96.2 375.5,100.9 373.1,93.4 370.6,89.8 368.2,88.0 365.7,88.4 363.3,87.9 360.8,90.7 358.4,94.8 355.9,93.7 353.5,93.5 351.0,88.0 348.6,86.1 346.1,87.8 343.7,87.9 341.2,88.0 338.8,92.1 336.3,96.0 333.9,92.6 331.4,89.1 329.0,87.4 326.5,87.3 324.1,88.2 321.6,88.8 319.1,94.2 316.7,94.2 314.2,95.3 311.8,93.7 309.3,89.7 306.9,89.1 304.4,89.9 302.0,89.7 299.5,94.2 297.1,98.4 294.6,98.7 292.2,93.9 289.7,91.0 287.3,92.1 284.8,90.6 282.4,90.5 279.9,93.8 277.5,101.4 275.0,99.9 272.6,97.5 270.1,91.4 267.7,90.3 265.2,91.2 262.8,90.7 260.3,90.2 257.9,96.2 255.4,98.9 253.0,95.6 250.5,91.6 248.1,89.3 245.6,88.2 243.2,88.6 240.7,87.6 238.3,92.4 235.8,95.3 233.3,94.3 230.9,90.5 228.4,88.2 226.0,87.7 223.5,88.1 221.1,86.9 218.6,91.4 216.2,95.7 213.7,92.9 211.3,92.9 208.8,89.0 206.4,89.3 203.9,88.9 201.5,88.7 199.0,92.0 196.6,98.0 194.1,96.9 191.7,95.2 189.2,90.2 186.8,89.2 184.3,90.5 181.9,91.4 179.4,91.6 177.0,97.6 174.5,99.6 172.1,98.7 169.6,94.4 167.2,91.2 164.7,90.5 162.3,91.9 159.8,89.6 157.4,97.2 154.9,98.2 152.5,99.6 150.0,88.8" fill="#64748b" opacity="0.56"/>
  </g>
  <g>
    <text x="18" y="162.0" class="label">f2_two_speaker</text>
    <text x="18" y="182.0" class="meta">2 spk / 19275 ms</text>
    <line x1="150" y1="170.0" x2="932" y2="170.0" stroke="#ccd3dd" stroke-width="1"/>
    <rect x="150.0" y="131.0" width="113.2" height="10" fill="#3867d6" opacity="0.75"/><rect x="277.4" y="131.0" width="121.7" height="10" fill="#c0392b" opacity="0.75"/><rect x="413.3" y="131.0" width="136.9" height="10" fill="#3867d6" opacity="0.75"/><rect x="564.5" y="131.0" width="142.0" height="10" fill="#c0392b" opacity="0.75"/><rect x="720.7" y="131.0" width="211.3" height="10" fill="#3867d6" opacity="0.75"/>
    <polygon points="150.0,148.3 152.5,149.5 154.9,156.2 157.4,156.1 159.8,150.0 162.3,147.9 164.7,154.4 167.2,156.8 169.6,154.6 172.1,149.6 174.5,152.0 177.0,159.2 179.4,158.5 181.9,154.7 184.3,152.1 186.8,159.9 189.2,160.2 191.7,156.0 194.1,152.6 196.6,157.2 199.0,158.3 201.5,156.0 203.9,148.5 206.4,151.6 208.8,156.4 211.3,156.3 213.7,147.6 216.2,146.6 218.6,157.1 221.1,155.7 223.5,148.7 226.0,149.1 228.4,157.7 230.9,157.9 233.3,153.8 235.8,152.6 238.3,157.0 240.7,159.7 243.2,158.7 245.6,151.5 248.1,156.2 250.5,159.8 253.0,160.8 255.4,153.6 257.9,153.2 260.3,160.4 262.8,166.4 265.2,170.0 267.7,170.0 270.1,170.0 272.6,170.0 275.0,170.0 277.5,152.1 279.9,148.5 282.4,156.8 284.8,155.4 287.3,150.2 289.7,148.5 292.2,154.9 294.6,155.9 297.1,150.7 299.5,146.6 302.0,150.2 304.4,158.1 306.9,157.9 309.3,151.7 311.8,153.4 314.2,160.2 316.7,158.7 319.1,155.2 321.6,152.2 324.1,159.6 326.5,159.5 329.0,153.3 331.4,150.0 333.9,152.4 336.3,157.0 338.8,155.7 341.2,147.5 343.7,149.7 346.1,156.8 348.6,155.5 351.0,147.1 353.5,148.6 355.9,155.7 358.4,155.6 360.8,152.7 363.3,148.8 365.7,153.4 368.2,157.8 370.6,156.4 373.1,151.9 375.5,154.6 378.0,159.3 380.4,159.1 382.9,151.5 385.3,151.8 387.8,158.4 390.2,158.8 392.7,153.7 395.1,149.0 397.6,157.7 400.0,169.7 402.5,170.0 404.9,170.0 407.4,170.0 409.8,170.0 412.3,167.2 414.8,148.4 417.2,150.7 419.7,156.2 422.1,155.3 424.6,146.7 427.0,149.3 429.5,156.7 431.9,156.5 434.4,149.3 436.8,148.9 439.3,157.0 441.7,158.7 444.2,154.7 446.6,150.6 449.1,155.6 451.5,158.7 454.0,155.7 456.4,151.8 458.9,153.4 461.3,158.5 463.8,156.4 466.2,149.2 468.7,149.2 471.1,155.9 473.6,156.3 476.0,148.7 478.5,146.7 480.9,154.5 483.4,155.4 485.8,149.4 488.3,149.6 490.7,152.9 493.2,156.6 495.6,157.3 498.1,148.9 500.6,151.5 503.0,160.4 505.5,159.4 507.9,152.0 510.4,152.1 512.8,158.5 515.3,158.1 517.7,154.3 520.2,149.0 522.6,154.5 525.1,157.8 527.5,156.1 530.0,146.6 532.4,148.3 534.9,156.1 537.3,156.1 539.8,146.9 542.2,147.0 544.7,155.0 547.1,157.0 549.6,160.6 552.0,170.0 554.5,170.0 556.9,170.0 559.4,170.0 561.8,170.0 564.3,164.9 566.7,152.2 569.2,156.5 571.6,157.4 574.1,149.7 576.5,148.9 579.0,151.4 581.4,156.0 583.9,155.8 586.4,148.1 588.8,151.0 591.3,158.6 593.7,157.5 596.2,149.8 598.6,147.9 601.1,159.6 603.5,157.9 606.0,156.1 608.4,152.2 610.9,157.7 613.3,159.0 615.8,156.3 618.2,152.7 620.7,154.8 623.1,158.3 625.6,156.4 628.0,146.9 630.5,148.7 632.9,154.1 635.4,153.8 637.8,149.4 640.3,147.5 642.7,155.5 645.2,157.4 647.6,156.3 650.1,150.8 652.5,151.7 655.0,159.1 657.4,158.7 659.9,152.0 662.3,154.9 664.8,160.3 667.2,159.7 669.7,151.2 672.2,152.5 674.6,158.6 677.1,157.1 679.5,155.0 682.0,149.2 684.4,153.6 686.9,158.3 689.3,153.4 691.8,146.6 694.2,147.6 696.7,157.0 699.1,156.1 701.6,147.2 704.0,149.5 706.5,158.7 708.9,170.0 711.4,170.0 713.8,170.0 716.3,170.0 718.7,170.0 721.2,163.2 723.6,153.4 726.1,157.1 728.5,157.2 731.0,151.4 733.4,146.6 735.9,155.8 738.3,157.4 740.8,155.2 743.2,149.1 745.7,155.5 748.1,158.8 750.6,157.7 753.0,153.5 755.5,154.7 757.9,159.5 760.4,159.8 762.9,154.9 765.3,152.5 767.8,158.6 770.2,159.2 772.7,152.4 775.1,150.2 777.6,155.6 780.0,157.7 782.5,155.7 784.9,147.3 787.4,150.8 789.8,157.1 792.3,156.9 794.7,149.0 797.2,149.4 799.6,157.6 802.1,157.9 804.5,153.1 807.0,152.0 809.4,157.2 811.9,159.9 814.3,156.5 816.8,154.1 819.2,154.9 821.7,160.1 824.1,159.9 826.6,151.4 829.0,152.6 831.5,158.3 833.9,157.9 836.4,151.1 838.8,150.3 841.3,154.3 843.7,156.5 846.2,154.2 848.7,148.4 851.1,154.3 853.6,157.9 856.0,154.5 858.5,149.4 860.9,150.2 863.4,158.5 865.8,159.5 868.3,153.6 870.7,153.8 873.2,159.8 875.6,160.1 878.1,154.3 880.5,151.5 883.0,159.1 885.4,159.4 887.9,156.7 890.3,150.2 892.8,151.1 895.2,157.6 897.7,157.2 900.1,147.3 902.6,150.2 905.0,157.1 907.5,156.6 909.9,150.7 912.4,149.4 914.8,157.5 917.3,158.0 919.7,156.8 922.2,152.1 924.6,155.7 927.1,160.9 929.5,161.1 932.0,158.4 932.0,181.6 929.5,178.9 927.1,179.1 924.6,184.3 922.2,187.9 919.7,183.2 917.3,182.0 914.8,182.5 912.4,190.6 909.9,189.3 907.5,183.4 905.0,182.9 902.6,189.8 900.1,192.7 897.7,182.8 895.2,182.4 892.8,188.9 890.3,189.8 887.9,183.3 885.4,180.6 883.0,180.9 880.5,188.5 878.1,185.7 875.6,179.9 873.2,180.2 870.7,186.2 868.3,186.4 865.8,180.5 863.4,181.5 860.9,189.8 858.5,190.6 856.0,185.5 853.6,182.1 851.1,185.7 848.7,191.6 846.2,185.8 843.7,183.5 841.3,185.7 838.8,189.7 836.4,188.9 833.9,182.1 831.5,181.7 829.0,187.4 826.6,188.6 824.1,180.1 821.7,179.9 819.2,185.1 816.8,185.9 814.3,183.5 811.9,180.1 809.4,182.8 807.0,188.0 804.5,186.9 802.1,182.1 799.6,182.4 797.2,190.6 794.7,191.0 792.3,183.1 789.8,182.9 787.4,189.2 784.9,192.7 782.5,184.3 780.0,182.3 777.6,184.4 775.1,189.8 772.7,187.6 770.2,180.8 767.8,181.4 765.3,187.5 762.9,185.1 760.4,180.2 757.9,180.5 755.5,185.3 753.0,186.5 750.6,182.3 748.1,181.2 745.7,184.5 743.2,190.9 740.8,184.8 738.3,182.6 735.9,184.2 733.4,193.4 731.0,188.6 728.5,182.8 726.1,182.9 723.6,186.6 721.2,176.8 718.7,170.0 716.3,170.0 713.8,170.0 711.4,170.0 708.9,170.0 706.5,181.3 704.0,190.5 701.6,192.8 699.1,183.9 696.7,183.0 694.2,192.4 691.8,193.4 689.3,186.6 686.9,181.7 684.4,186.4 682.0,190.8 679.5,185.0 677.1,182.9 674.6,181.4 672.2,187.5 669.7,188.8 667.2,180.3 664.8,179.7 662.3,185.1 659.9,188.0 657.4,181.3 655.0,180.9 652.5,188.3 650.1,189.2 647.6,183.7 645.2,182.6 642.7,184.5 640.3,192.5 637.8,190.6 635.4,186.2 632.9,185.9 630.5,191.3 628.0,193.1 625.6,183.6 623.1,181.7 620.7,185.2 618.2,187.3 615.8,183.7 613.3,181.0 610.9,182.3 608.4,187.8 606.0,183.9 603.5,182.1 601.1,180.4 598.6,192.1 596.2,190.2 593.7,182.5 591.3,181.4 588.8,189.0 586.4,191.9 583.9,184.2 581.4,184.0 579.0,188.6 576.5,191.1 574.1,190.3 571.6,182.6 569.2,183.5 566.7,187.8 564.3,175.1 561.8,170.0 559.4,170.0 556.9,170.0 554.5,170.0 552.0,170.0 549.6,179.4 547.1,183.0 544.7,185.0 542.2,193.0 539.8,193.1 537.3,183.9 534.9,183.9 532.4,191.7 530.0,193.4 527.5,183.9 525.1,182.2 522.6,185.5 520.2,191.0 517.7,185.7 515.3,181.9 512.8,181.5 510.4,187.9 507.9,188.0 505.5,180.6 503.0,179.6 500.6,188.5 498.1,191.1 495.6,182.7 493.2,183.4 490.7,187.1 488.3,190.4 485.8,190.6 483.4,184.6 480.9,185.5 478.5,193.3 476.0,191.3 473.6,183.7 471.1,184.1 468.7,190.8 466.2,190.8 463.8,183.6 461.3,181.5 458.9,186.6 456.4,188.2 454.0,184.3 451.5,181.3 449.1,184.4 446.6,189.4 444.2,185.3 441.7,181.3 439.3,183.0 436.8,191.1 434.4,190.7 431.9,183.5 429.5,183.3 427.0,190.7 424.6,193.3 422.1,184.7 419.7,183.8 417.2,189.3 414.8,191.6 412.3,172.8 409.8,170.0 407.4,170.0 404.9,170.0 402.5,170.0 400.0,170.3 397.6,182.3 395.1,191.0 392.7,186.3 390.2,181.2 387.8,181.6 385.3,188.2 382.9,188.5 380.4,180.9 378.0,180.7 375.5,185.4 373.1,188.1 370.6,183.6 368.2,182.2 365.7,186.6 363.3,191.2 360.8,187.3 358.4,184.4 355.9,184.3 353.5,191.4 351.0,192.9 348.6,184.5 346.1,183.2 343.7,190.3 341.2,192.5 338.8,184.3 336.3,183.0 333.9,187.6 331.4,190.0 329.0,186.7 326.5,180.5 324.1,180.4 321.6,187.8 319.1,184.8 316.7,181.3 314.2,179.8 311.8,186.6 309.3,188.3 306.9,182.1 304.4,181.9 302.0,189.8 299.5,193.4 297.1,189.3 294.6,184.1 292.2,185.1 289.7,191.5 287.3,189.8 284.8,184.6 282.4,183.2 279.9,191.5 277.5,187.9 275.0,170.0 272.6,170.0 270.1,170.0 267.7,170.0 265.2,170.0 262.8,173.6 260.3,179.6 257.9,186.8 255.4,186.4 253.0,179.2 250.5,180.2 248.1,183.8 245.6,188.5 243.2,181.3 240.7,180.3 238.3,183.0 235.8,187.4 233.3,186.2 230.9,182.1 228.4,182.3 226.0,190.9 223.5,191.3 221.1,184.3 218.6,182.9 216.2,193.4 213.7,192.4 211.3,183.7 208.8,183.6 206.4,188.4 203.9,191.5 201.5,184.0 199.0,181.7 196.6,182.8 194.1,187.4 191.7,184.0 189.2,179.8 186.8,180.1 184.3,187.9 181.9,185.3 179.4,181.5 177.0,180.8 174.5,188.0 172.1,190.4 169.6,185.4 167.2,183.2 164.7,185.6 162.3,192.1 159.8,190.0 157.4,183.9 154.9,183.8 152.5,190.5 150.0,191.7" fill="#64748b" opacity="0.56"/>
  </g>
  <g>
    <text x="18" y="254.0" class="label">f3_three_speaker</text>
    <text x="18" y="274.0" class="meta">3 spk / 21541 ms</text>
    <line x1="150" y1="262.0" x2="932" y2="262.0" stroke="#ccd3dd" stroke-width="1"/>
    <rect x="150.0" y="223.0" width="101.3" height="10" fill="#3867d6" opacity="0.75"/><rect x="264.0" y="223.0" width="127.1" height="10" fill="#c0392b" opacity="0.75"/><rect x="403.8" y="223.0" width="90.8" height="10" fill="#00875a" opacity="0.75"/><rect x="507.3" y="223.0" width="145.2" height="10" fill="#3867d6" opacity="0.75"/><rect x="665.2" y="223.0" width="145.2" height="10" fill="#c0392b" opacity="0.75"/><rect x="823.1" y="223.0" width="108.9" height="10" fill="#00875a" opacity="0.75"/>
    <polygon points="150.0,240.3 152.5,241.5 154.9,248.2 157.4,248.1 159.8,240.7 162.3,239.9 164.7,248.8 167.2,246.6 169.6,241.6 172.1,244.0 174.5,250.5 177.0,246.7 179.4,244.1 181.9,248.3 184.3,251.9 186.8,248.0 189.2,244.6 191.7,249.2 194.1,250.3 196.6,244.0 199.0,240.5 201.5,248.9 203.9,248.4 206.4,239.6 208.8,238.6 211.3,249.1 213.7,247.7 216.2,240.7 218.6,242.7 221.1,249.7 223.5,247.8 226.0,244.6 228.4,245.2 230.9,251.7 233.3,247.2 235.8,243.5 238.3,250.0 240.7,251.9 243.2,246.0 245.6,245.2 248.1,249.5 250.5,256.9 253.0,262.0 255.4,262.0 257.9,262.0 260.3,262.0 262.8,256.6 265.2,243.9 267.7,249.0 270.1,250.5 272.6,244.7 275.0,238.6 277.5,249.6 279.9,252.2 282.4,246.7 284.8,245.1 287.3,251.8 289.7,252.2 292.2,247.1 294.6,247.8 297.1,253.1 299.5,253.0 302.0,249.3 304.4,247.1 306.9,252.8 309.3,249.5 311.8,246.1 314.2,248.5 316.7,252.6 319.1,248.5 321.6,243.2 324.1,249.2 326.5,251.1 329.0,243.9 331.4,244.0 333.9,251.2 336.3,251.5 338.8,246.2 341.2,244.9 343.7,252.7 346.1,252.9 348.6,247.9 351.0,247.0 353.5,253.2 355.9,253.0 358.4,247.1 360.8,248.3 363.3,252.5 365.7,252.1 368.2,243.6 370.6,245.7 373.1,251.6 375.5,248.8 378.0,243.3 380.4,248.6 382.9,250.0 385.3,246.4 387.8,243.1 390.2,249.4 392.7,262.0 395.1,262.0 397.6,262.0 400.0,262.0 402.5,259.5 404.9,240.7 407.4,244.9 409.8,248.5 412.3,242.1 414.8,242.1 417.2,250.3 419.7,247.8 422.1,242.6 424.6,248.2 427.0,251.4 429.5,242.5 431.9,243.2 434.4,250.1 436.8,246.5 439.3,241.3 441.7,245.2 444.2,248.1 446.6,239.5 449.1,239.0 451.5,247.9 454.0,244.1 456.4,238.6 458.9,243.0 461.3,248.8 463.8,242.7 466.2,242.9 468.7,250.6 471.1,249.1 473.6,243.8 476.0,247.7 478.5,251.4 480.9,246.1 483.4,242.8 485.8,250.5 488.3,248.6 490.7,239.7 493.2,240.9 495.6,262.0 498.1,262.0 500.6,262.0 503.0,262.0 505.5,262.0 507.9,241.4 510.4,244.6 512.8,249.7 515.3,242.9 517.7,238.9 520.2,246.2 522.6,248.4 525.1,242.1 527.5,241.8 530.0,249.8 532.4,251.0 534.9,245.4 537.3,245.7 539.8,251.4 542.2,252.0 544.7,246.2 547.1,244.3 549.6,250.6 552.0,251.2 554.5,242.0 556.9,241.9 559.4,248.8 561.8,246.5 564.3,238.6 566.7,241.1 569.2,248.3 571.6,245.0 574.1,239.7 576.5,248.2 579.0,249.8 581.4,245.9 583.9,243.3 586.4,246.9 588.8,251.1 591.3,244.2 593.7,244.6 596.2,251.9 598.6,251.6 601.1,245.8 603.5,243.4 606.0,250.4 608.4,249.4 610.9,239.7 613.3,242.2 615.8,248.7 618.2,249.3 620.7,239.2 623.1,242.6 625.6,250.1 628.0,247.7 630.5,242.6 632.9,246.4 635.4,251.4 637.8,245.5 640.3,243.9 642.7,250.6 645.2,251.7 647.6,246.8 650.1,243.7 652.5,255.8 655.0,262.0 657.4,262.0 659.9,262.0 662.3,262.0 664.8,258.0 667.2,245.7 669.7,249.7 672.2,250.6 674.6,238.6 677.1,240.9 679.5,249.2 682.0,249.3 684.4,242.8 686.9,245.4 689.3,250.7 691.8,250.0 694.2,242.8 696.7,247.2 699.1,252.5 701.6,249.7 704.0,245.5 706.5,251.6 708.9,251.8 711.4,243.4 713.8,244.6 716.3,250.9 718.7,249.7 721.2,242.5 723.6,241.8 726.1,250.0 728.5,250.1 731.0,242.2 733.4,240.9 735.9,250.0 738.3,249.3 740.8,244.0 743.2,242.1 745.7,251.4 748.1,252.3 750.6,245.7 753.0,247.1 755.5,252.7 757.9,249.3 760.4,247.2 762.9,249.9 765.3,252.4 767.8,241.6 770.2,244.2 772.7,249.0 775.1,247.6 777.6,242.1 780.0,241.4 782.5,248.0 784.9,249.2 787.4,241.8 789.8,241.5 792.3,250.7 794.7,250.4 797.2,245.0 799.6,246.0 802.1,252.3 804.5,251.4 807.0,245.3 809.4,250.4 811.9,260.4 814.3,262.0 816.8,262.0 819.2,262.0 821.7,262.0 824.1,249.2 826.6,246.8 829.0,249.7 831.5,241.4 833.9,243.2 836.4,250.9 838.8,248.4 841.3,244.9 843.7,246.3 846.2,252.2 848.7,244.1 851.1,244.0 853.6,251.2 856.0,249.7 858.5,241.4 860.9,244.7 863.4,249.6 865.8,240.7 868.3,239.4 870.7,248.6 873.2,248.3 875.6,238.8 878.1,242.7 880.5,249.0 883.0,242.7 885.4,241.9 887.9,250.9 890.3,250.1 892.8,244.4 895.2,245.5 897.7,251.8 900.1,246.7 902.6,244.3 905.0,250.8 907.5,249.0 909.9,242.2 912.4,242.1 914.8,249.4 917.3,242.6 919.7,238.6 922.2,246.4 924.6,248.5 927.1,240.9 929.5,242.7 932.0,250.0 932.0,274.0 929.5,281.3 927.1,283.1 924.6,275.5 922.2,277.6 919.7,285.4 917.3,281.4 914.8,274.6 912.4,281.9 909.9,281.8 907.5,275.0 905.0,273.2 902.6,279.7 900.1,277.3 897.7,272.2 895.2,278.5 892.8,279.6 890.3,273.9 887.9,273.1 885.4,282.1 883.0,281.3 880.5,275.0 878.1,281.3 875.6,285.2 873.2,275.7 870.7,275.4 868.3,284.6 865.8,283.3 863.4,274.4 860.9,279.3 858.5,282.6 856.0,274.3 853.6,272.8 851.1,280.0 848.7,279.9 846.2,271.8 843.7,277.7 841.3,279.1 838.8,275.6 836.4,273.1 833.9,280.8 831.5,282.6 829.0,274.3 826.6,277.2 824.1,274.8 821.7,262.0 819.2,262.0 816.8,262.0 814.3,262.0 811.9,263.6 809.4,273.6 807.0,278.7 804.5,272.6 802.1,271.7 799.6,278.0 797.2,279.0 794.7,273.6 792.3,273.3 789.8,282.5 787.4,282.2 784.9,274.8 782.5,276.0 780.0,282.6 777.6,281.9 775.1,276.4 772.7,275.0 770.2,279.8 767.8,282.4 765.3,271.6 762.9,274.1 760.4,276.8 757.9,274.7 755.5,271.3 753.0,276.9 750.6,278.3 748.1,271.7 745.7,272.6 743.2,281.9 740.8,280.0 738.3,274.7 735.9,274.0 733.4,283.1 731.0,281.8 728.5,273.9 726.1,274.0 723.6,282.2 721.2,281.5 718.7,274.3 716.3,273.1 713.8,279.4 711.4,280.6 708.9,272.2 706.5,272.4 704.0,278.5 701.6,274.3 699.1,271.5 696.7,276.8 694.2,281.2 691.8,274.0 689.3,273.3 686.9,278.6 684.4,281.2 682.0,274.7 679.5,274.8 677.1,283.1 674.6,285.4 672.2,273.4 669.7,274.3 667.2,278.3 664.8,266.0 662.3,262.0 659.9,262.0 657.4,262.0 655.0,262.0 652.5,268.2 650.1,280.3 647.6,277.2 645.2,272.3 642.7,273.4 640.3,280.1 637.8,278.5 635.4,272.6 632.9,277.6 630.5,281.4 628.0,276.3 625.6,273.9 623.1,281.4 620.7,284.8 618.2,274.7 615.8,275.3 613.3,281.8 610.9,284.3 608.4,274.6 606.0,273.6 603.5,280.6 601.1,278.2 598.6,272.4 596.2,272.1 593.7,279.4 591.3,279.8 588.8,272.9 586.4,277.1 583.9,280.7 581.4,278.1 579.0,274.2 576.5,275.8 574.1,284.3 571.6,279.0 569.2,275.7 566.7,282.9 564.3,285.4 561.8,277.5 559.4,275.2 556.9,282.1 554.5,282.0 552.0,272.8 549.6,273.4 547.1,279.7 544.7,277.8 542.2,272.0 539.8,272.6 537.3,278.3 534.9,278.6 532.4,273.0 530.0,274.2 527.5,282.2 525.1,281.9 522.6,275.6 520.2,277.8 517.7,285.1 515.3,281.1 512.8,274.3 510.4,279.4 507.9,282.6 505.5,262.0 503.0,262.0 500.6,262.0 498.1,262.0 495.6,262.0 493.2,283.1 490.7,284.3 488.3,275.4 485.8,273.5 483.4,281.2 480.9,277.9 478.5,272.6 476.0,276.3 473.6,280.2 471.1,274.9 468.7,273.4 466.2,281.1 463.8,281.3 461.3,275.2 458.9,281.0 456.4,285.4 454.0,279.9 451.5,276.1 449.1,285.0 446.6,284.5 444.2,275.9 441.7,278.8 439.3,282.7 436.8,277.5 434.4,273.9 431.9,280.8 429.5,281.5 427.0,272.6 424.6,275.8 422.1,281.4 419.7,276.2 417.2,273.7 414.8,281.9 412.3,281.9 409.8,275.5 407.4,279.1 404.9,283.3 402.5,264.5 400.0,262.0 397.6,262.0 395.1,262.0 392.7,262.0 390.2,274.6 387.8,280.9 385.3,277.6 382.9,274.0 380.4,275.4 378.0,280.7 375.5,275.2 373.1,272.4 370.6,278.3 368.2,280.4 365.7,271.9 363.3,271.5 360.8,275.7 358.4,276.9 355.9,271.0 353.5,270.8 351.0,277.0 348.6,276.1 346.1,271.1 343.7,271.3 341.2,279.1 338.8,277.8 336.3,272.5 333.9,272.8 331.4,280.0 329.0,280.1 326.5,272.9 324.1,274.8 321.6,280.8 319.1,275.5 316.7,271.4 314.2,275.5 311.8,277.9 309.3,274.5 306.9,271.2 304.4,276.9 302.0,274.7 299.5,271.0 297.1,270.9 294.6,276.2 292.2,276.9 289.7,271.8 287.3,272.2 284.8,278.9 282.4,277.3 279.9,271.8 277.5,274.4 275.0,285.4 272.6,279.3 270.1,273.5 267.7,275.0 265.2,280.1 262.8,267.4 260.3,262.0 257.9,262.0 255.4,262.0 253.0,262.0 250.5,267.1 248.1,274.5 245.6,278.8 243.2,278.0 240.7,272.1 238.3,274.0 235.8,280.5 233.3,276.8 230.9,272.3 228.4,278.8 226.0,279.4 223.5,276.2 221.1,274.3 218.6,281.3 216.2,283.3 213.7,276.3 211.3,274.9 208.8,285.4 206.4,284.4 203.9,275.6 201.5,275.1 199.0,283.5 196.6,280.0 194.1,273.7 191.7,274.8 189.2,279.4 186.8,276.0 184.3,272.1 181.9,275.7 179.4,279.9 177.0,277.3 174.5,273.5 172.1,280.0 169.6,282.4 167.2,277.4 164.7,275.2 162.3,284.1 159.8,283.3 157.4,275.9 154.9,275.8 152.5,282.5 150.0,283.7" fill="#64748b" opacity="0.56"/>
  </g>
  <g>
    <text x="18" y="346.0" class="label">f4_long_dialogue</text>
    <text x="18" y="366.0" class="meta">2 spk / 26432 ms</text>
    <line x1="150" y1="354.0" x2="932" y2="354.0" stroke="#ccd3dd" stroke-width="1"/>
    <rect x="150.0" y="315.0" width="82.6" height="10" fill="#3867d6" opacity="0.75"/><rect x="242.9" y="315.0" width="103.5" height="10" fill="#c0392b" opacity="0.75"/><rect x="356.8" y="315.0" width="99.9" height="10" fill="#3867d6" opacity="0.75"/><rect x="467.0" y="315.0" width="118.3" height="10" fill="#c0392b" opacity="0.75"/><rect x="595.7" y="315.0" width="118.3" height="10" fill="#3867d6" opacity="0.75"/><rect x="724.4" y="315.0" width="43.1" height="10" fill="#c0392b" opacity="0.75"/><rect x="777.9" y="315.0" width="154.1" height="10" fill="#3867d6" opacity="0.75"/>
    <polygon points="150.0,332.3 152.5,334.3 154.9,340.1 157.4,332.7 159.8,331.9 162.3,340.8 164.7,336.1 167.2,333.6 169.6,342.5 172.1,338.7 174.5,336.1 177.0,343.9 179.4,340.0 181.9,336.6 184.3,343.6 186.8,340.0 189.2,332.5 191.7,339.5 194.1,338.0 196.6,330.6 199.0,336.8 201.5,339.7 203.9,332.7 206.4,335.8 208.8,341.8 211.3,336.6 213.7,337.2 216.2,343.7 218.6,335.5 221.1,336.9 223.5,343.9 226.0,337.6 228.4,337.2 230.9,344.6 233.3,354.0 235.8,354.0 238.3,354.0 240.7,354.0 243.2,335.9 245.6,338.5 248.1,342.5 250.5,330.6 253.0,338.3 255.4,341.6 257.9,338.7 260.3,337.1 262.8,343.8 265.2,339.1 267.7,339.1 270.1,345.1 272.6,341.9 275.0,339.1 277.5,344.8 279.9,340.2 282.4,338.1 284.8,344.6 287.3,340.5 289.7,335.2 292.2,342.2 294.6,342.1 297.1,335.9 299.5,339.4 302.0,343.5 304.4,336.9 306.9,340.0 309.3,344.9 311.8,339.0 314.2,341.7 316.7,345.2 319.1,339.6 321.6,339.1 324.1,344.1 326.5,336.3 329.0,335.6 331.4,342.8 333.9,337.5 336.3,335.3 338.8,342.0 341.2,339.5 343.7,335.1 346.1,348.0 348.6,354.0 351.0,354.0 353.5,354.0 355.9,343.7 358.4,332.4 360.8,339.5 363.3,334.2 365.7,330.7 368.2,340.7 370.6,335.5 373.1,332.9 375.5,341.0 378.0,341.4 380.4,334.6 382.9,339.6 385.3,342.6 387.8,335.8 390.2,337.4 392.7,341.4 395.1,333.2 397.6,333.2 400.0,339.9 402.5,330.7 404.9,331.4 407.4,339.4 409.8,333.4 412.3,334.2 414.8,340.6 417.2,337.2 419.7,332.9 422.1,344.4 424.6,340.4 427.0,336.0 429.5,342.5 431.9,339.0 434.4,333.0 436.8,338.5 439.3,340.1 441.7,330.6 444.2,334.9 446.6,340.1 449.1,330.9 451.5,336.0 454.0,339.9 456.4,344.6 458.9,354.0 461.3,354.0 463.8,354.0 466.2,349.1 468.7,337.6 471.1,341.2 473.6,336.1 476.0,334.0 478.5,340.4 480.9,336.5 483.4,332.7 485.8,339.7 488.3,342.0 490.7,334.9 493.2,343.0 495.6,343.7 498.1,337.8 500.6,340.8 503.0,344.6 505.5,337.5 507.9,339.6 510.4,342.8 512.8,334.3 515.3,333.0 517.7,340.2 520.2,334.4 522.6,330.6 525.1,341.7 527.5,334.4 530.0,337.4 532.4,342.4 534.9,339.6 537.3,337.5 539.8,343.0 542.2,341.7 544.7,334.1 547.1,343.6 549.6,341.2 552.0,334.5 554.5,338.0 556.9,341.6 559.4,332.7 561.8,338.1 564.3,341.3 566.7,334.1 569.2,336.3 571.6,342.6 574.1,336.5 576.5,339.0 579.0,343.6 581.4,338.6 583.9,337.1 586.4,351.7 588.8,354.0 591.3,354.0 593.7,354.0 596.2,338.1 598.6,337.1 601.1,340.9 603.5,330.9 606.0,335.4 608.4,340.9 610.9,332.5 613.3,333.9 615.8,342.5 618.2,337.4 620.7,337.3 623.1,343.4 625.6,338.9 628.0,336.0 630.5,343.1 632.9,336.1 635.4,333.6 637.8,341.8 640.3,336.5 642.7,330.6 645.2,338.4 647.6,336.9 650.1,332.4 652.5,339.8 655.0,341.4 657.4,336.2 659.9,338.7 662.3,344.0 664.8,339.2 667.2,337.9 669.7,343.8 672.2,335.0 674.6,335.3 677.1,341.7 679.5,334.1 682.0,333.8 684.4,340.2 686.9,334.3 689.3,331.6 691.8,340.4 694.2,337.6 696.7,333.0 699.1,342.3 701.6,341.0 704.0,337.0 706.5,343.8 708.9,342.4 711.4,335.3 713.8,340.9 716.3,354.0 718.7,354.0 721.2,354.0 723.6,354.0 726.1,337.4 728.5,339.4 731.0,335.5 733.4,331.2 735.9,339.0 738.3,335.4 740.8,330.6 743.2,336.4 745.7,340.0 748.1,332.7 750.6,336.4 753.0,341.8 755.5,334.9 757.9,340.1 760.4,340.6 762.9,333.5 765.3,336.1 767.8,341.7 770.2,354.0 772.7,354.0 775.1,354.0 777.6,354.0 780.0,341.1 782.5,340.7 784.9,331.2 787.4,331.0 789.8,340.7 792.3,335.6 794.7,332.2 797.2,342.3 799.6,336.6 802.1,336.2 804.5,343.4 807.0,342.1 809.4,336.4 811.9,341.0 814.3,342.5 816.8,335.4 819.2,338.9 821.7,341.5 824.1,330.6 826.6,335.8 829.0,340.6 831.5,333.0 833.9,332.6 836.4,342.1 838.8,334.4 841.3,333.9 843.7,342.9 846.2,337.2 848.7,337.1 851.1,344.0 853.6,336.5 856.0,336.6 858.5,342.0 860.9,338.6 863.4,333.2 865.8,340.2 868.3,340.3 870.7,330.6 873.2,339.4 875.6,341.4 878.1,332.3 880.5,336.9 883.0,342.6 885.4,336.5 887.9,336.8 890.3,343.5 892.8,336.7 895.2,338.0 897.7,342.7 900.1,334.3 902.6,335.3 905.0,340.8 907.5,334.6 909.9,332.9 912.4,340.7 914.8,334.4 917.3,333.0 919.7,341.5 922.2,338.8 924.6,336.3 927.1,340.5 929.5,343.7 932.0,336.1 932.0,371.9 929.5,364.3 927.1,367.5 924.6,371.7 922.2,369.2 919.7,366.5 917.3,375.0 914.8,373.6 912.4,367.3 909.9,375.1 907.5,373.4 905.0,367.2 902.6,372.7 900.1,373.7 897.7,365.3 895.2,370.0 892.8,371.3 890.3,364.5 887.9,371.2 885.4,371.5 883.0,365.4 880.5,371.1 878.1,375.7 875.6,366.6 873.2,368.6 870.7,377.4 868.3,367.7 865.8,367.8 863.4,374.8 860.9,369.4 858.5,366.0 856.0,371.4 853.6,371.5 851.1,364.0 848.7,370.9 846.2,370.8 843.7,365.1 841.3,374.1 838.8,373.6 836.4,365.9 833.9,375.4 831.5,375.0 829.0,367.4 826.6,372.2 824.1,377.4 821.7,366.5 819.2,369.1 816.8,372.6 814.3,365.5 811.9,367.0 809.4,371.6 807.0,365.9 804.5,364.6 802.1,371.8 799.6,371.4 797.2,365.7 794.7,375.8 792.3,372.4 789.8,367.3 787.4,377.0 784.9,376.8 782.5,367.3 780.0,366.9 777.6,354.0 775.1,354.0 772.7,354.0 770.2,354.0 767.8,366.3 765.3,371.9 762.9,374.5 760.4,367.4 757.9,367.9 755.5,373.1 753.0,366.2 750.6,371.6 748.1,375.3 745.7,368.0 743.2,371.6 740.8,377.4 738.3,372.6 735.9,369.0 733.4,376.8 731.0,372.5 728.5,368.6 726.1,370.6 723.6,354.0 721.2,354.0 718.7,354.0 716.3,354.0 713.8,367.1 711.4,372.7 708.9,365.6 706.5,364.2 704.0,371.0 701.6,367.0 699.1,365.7 696.7,375.0 694.2,370.4 691.8,367.6 689.3,376.4 686.9,373.7 684.4,367.8 682.0,374.2 679.5,373.9 677.1,366.3 674.6,372.7 672.2,373.0 669.7,364.2 667.2,370.1 664.8,368.8 662.3,364.0 659.9,369.3 657.4,371.8 655.0,366.6 652.5,368.2 650.1,375.6 647.6,371.1 645.2,369.6 642.7,377.4 640.3,371.5 637.8,366.2 635.4,374.4 632.9,371.9 630.5,364.9 628.0,372.0 625.6,369.1 623.1,364.6 620.7,370.7 618.2,370.6 615.8,365.5 613.3,374.1 610.9,375.5 608.4,367.1 606.0,372.6 603.5,377.1 601.1,367.1 598.6,370.9 596.2,369.9 593.7,354.0 591.3,354.0 588.8,354.0 586.4,356.3 583.9,370.9 581.4,369.4 579.0,364.4 576.5,369.0 574.1,371.5 571.6,365.4 569.2,371.7 566.7,373.9 564.3,366.7 561.8,369.9 559.4,375.3 556.9,366.4 554.5,370.0 552.0,373.5 549.6,366.8 547.1,364.4 544.7,373.9 542.2,366.3 539.8,365.0 537.3,370.5 534.9,368.4 532.4,365.6 530.0,370.6 527.5,373.6 525.1,366.3 522.6,377.4 520.2,373.6 517.7,367.8 515.3,375.0 512.8,373.7 510.4,365.2 507.9,368.4 505.5,370.5 503.0,363.4 500.6,367.2 498.1,370.2 495.6,364.3 493.2,365.0 490.7,373.1 488.3,366.0 485.8,368.3 483.4,375.3 480.9,371.5 478.5,367.6 476.0,374.0 473.6,371.9 471.1,366.8 468.7,370.4 466.2,358.9 463.8,354.0 461.3,354.0 458.9,354.0 456.4,363.4 454.0,368.1 451.5,372.0 449.1,377.1 446.6,367.9 444.2,373.1 441.7,377.4 439.3,367.9 436.8,369.5 434.4,375.0 431.9,369.0 429.5,365.5 427.0,372.0 424.6,367.6 422.1,363.6 419.7,375.1 417.2,370.8 414.8,367.4 412.3,373.8 409.8,374.6 407.4,368.6 404.9,376.6 402.5,377.3 400.0,368.1 397.6,374.8 395.1,374.8 392.7,366.6 390.2,370.6 387.8,372.2 385.3,365.4 382.9,368.4 380.4,373.4 378.0,366.6 375.5,367.0 373.1,375.1 370.6,372.5 368.2,367.3 365.7,377.3 363.3,373.8 360.8,368.5 358.4,375.6 355.9,364.3 353.5,354.0 351.0,354.0 348.6,354.0 346.1,360.0 343.7,372.9 341.2,368.5 338.8,366.0 336.3,372.7 333.9,370.5 331.4,365.2 329.0,372.4 326.5,371.7 324.1,363.9 321.6,368.9 319.1,368.4 316.7,362.8 314.2,366.3 311.8,369.0 309.3,363.1 306.9,368.0 304.4,371.1 302.0,364.5 299.5,368.6 297.1,372.1 294.6,365.9 292.2,365.8 289.7,372.8 287.3,367.5 284.8,363.4 282.4,369.9 279.9,367.8 277.5,363.2 275.0,368.9 272.6,366.1 270.1,362.9 267.7,368.9 265.2,368.9 262.8,364.2 260.3,370.9 257.9,369.3 255.4,366.4 253.0,369.7 250.5,377.4 248.1,365.5 245.6,369.5 243.2,372.1 240.7,354.0 238.3,354.0 235.8,354.0 233.3,354.0 230.9,363.4 228.4,370.8 226.0,370.4 223.5,364.1 221.1,371.1 218.6,372.5 216.2,364.3 213.7,370.8 211.3,371.4 208.8,366.2 206.4,372.2 203.9,375.3 201.5,368.3 199.0,371.2 196.6,377.4 194.1,370.0 191.7,368.5 189.2,375.5 186.8,368.0 184.3,364.4 181.9,371.4 179.4,368.0 177.0,364.1 174.5,371.9 172.1,369.3 169.6,365.5 167.2,374.4 164.7,371.9 162.3,367.2 159.8,376.1 157.4,375.3 154.9,367.9 152.5,373.7 150.0,375.7" fill="#64748b" opacity="0.56"/>
  </g>
  <g>
    <text x="18" y="438.0" class="label">f5_jill_scenario</text>
    <text x="18" y="458.0" class="meta">2 spk / 8516 ms</text>
    <line x1="150" y1="446.0" x2="932" y2="446.0" stroke="#ccd3dd" stroke-width="1"/>
    <rect x="150.0" y="407.0" width="382.6" height="10" fill="#3867d6" opacity="0.75"/><rect x="564.7" y="407.0" width="367.3" height="10" fill="#c0392b" opacity="0.75"/>
    <polygon points="150.0,438.0 152.5,424.6 154.9,425.7 157.4,426.9 159.8,432.1 162.3,433.7 164.7,432.3 167.2,433.4 169.6,432.7 172.1,433.7 174.5,428.7 177.0,424.8 179.4,424.4 181.9,426.6 184.3,432.1 186.8,434.5 189.2,433.1 191.7,433.7 194.1,434.2 196.6,433.4 199.0,429.1 201.5,427.1 203.9,425.4 206.4,428.1 208.8,435.4 211.3,435.3 213.7,435.4 216.2,434.8 218.6,435.2 221.1,434.4 223.5,431.0 226.0,430.6 228.4,428.3 230.9,432.8 233.3,436.0 235.8,436.0 238.3,436.4 240.7,437.3 243.2,435.7 245.6,433.3 248.1,429.4 250.5,428.8 253.0,428.7 255.4,433.4 257.9,436.3 260.3,435.7 262.8,435.8 265.2,434.8 267.7,434.8 270.1,428.5 272.6,426.5 275.0,425.4 277.5,427.6 279.9,433.5 282.4,432.9 284.8,432.6 287.3,433.8 289.7,433.3 292.2,432.9 294.6,426.6 297.1,423.5 299.5,422.6 302.0,429.6 304.4,433.3 306.9,433.7 309.3,433.4 311.8,432.2 314.2,433.0 316.7,430.1 319.1,425.5 321.6,425.3 324.1,426.9 326.5,429.5 329.0,434.2 331.4,433.9 333.9,435.1 336.3,434.8 338.8,434.0 341.2,430.3 343.7,428.7 346.1,429.8 348.6,429.5 351.0,433.4 353.5,435.2 355.9,436.3 358.4,436.7 360.8,436.8 363.3,436.6 365.7,431.3 368.2,427.9 370.6,428.9 373.1,432.8 375.5,436.3 378.0,436.2 380.4,436.2 382.9,437.6 385.3,437.6 387.8,435.2 390.2,430.7 392.7,429.9 395.1,429.5 397.6,433.0 400.0,436.5 402.5,436.1 404.9,435.8 407.4,436.2 409.8,434.2 412.3,430.3 414.8,426.5 417.2,423.7 419.7,425.8 422.1,430.1 424.6,432.3 427.0,434.7 429.5,434.7 431.9,433.9 434.4,433.4 436.8,430.4 439.3,424.4 441.7,423.7 444.2,428.1 446.6,433.4 449.1,434.1 451.5,434.6 454.0,435.4 456.4,433.9 458.9,434.1 461.3,431.0 463.8,426.2 466.2,428.2 468.7,432.1 471.1,434.0 473.6,435.3 476.0,435.5 478.5,435.6 480.9,435.5 483.4,434.1 485.8,431.3 488.3,428.8 490.7,429.0 493.2,433.7 495.6,436.0 498.1,436.4 500.6,436.2 503.0,436.6 505.5,435.6 507.9,433.0 510.4,429.9 512.8,429.1 515.3,432.3 517.7,432.6 520.2,436.8 522.6,436.6 525.1,434.9 527.5,434.6 530.0,438.7 532.4,441.2 534.9,446.0 537.3,446.0 539.8,446.0 542.2,446.0 544.7,446.0 547.1,446.0 549.6,446.0 552.0,446.0 554.5,446.0 556.9,446.0 559.4,446.0 561.8,446.0 564.3,446.0 566.7,438.5 569.2,424.7 571.6,427.1 574.1,428.1 576.5,433.8 579.0,433.8 581.4,434.3 583.9,431.6 586.4,434.0 588.8,431.2 591.3,424.1 593.7,422.6 596.2,425.3 598.6,429.8 601.1,433.3 603.5,432.3 606.0,433.2 608.4,435.5 610.9,434.1 613.3,429.6 615.8,427.8 618.2,424.8 620.7,423.7 623.1,432.7 625.6,433.6 628.0,434.0 630.5,435.8 632.9,434.3 635.4,435.7 637.8,429.2 640.3,427.7 642.7,425.2 645.2,432.9 647.6,436.5 650.1,436.4 652.5,436.4 655.0,435.5 657.4,435.5 659.9,433.5 662.3,433.3 664.8,430.7 667.2,428.5 669.7,431.3 672.2,436.0 674.6,436.9 677.1,436.4 679.5,436.0 682.0,435.0 684.4,433.3 686.9,427.7 689.3,428.6 691.8,428.3 694.2,431.6 696.7,435.0 699.1,434.6 701.6,434.2 704.0,435.2 706.5,433.4 708.9,430.9 711.4,426.8 713.8,423.1 716.3,428.7 718.7,430.1 721.2,435.2 723.6,433.7 726.1,434.1 728.5,433.9 731.0,429.7 733.4,424.9 735.9,424.3 738.3,425.1 740.8,428.4 743.2,432.7 745.7,433.8 748.1,433.8 750.6,433.9 753.0,433.6 755.5,431.1 757.9,428.8 760.4,428.2 762.9,426.0 765.3,431.6 767.8,434.6 770.2,436.3 772.7,435.4 775.1,434.5 777.6,435.0 780.0,432.6 782.5,430.1 784.9,430.6 787.4,430.5 789.8,433.1 792.3,435.8 794.7,435.9 797.2,435.5 799.6,436.2 802.1,435.4 804.5,432.2 807.0,430.3 809.4,428.6 811.9,431.9 814.3,434.7 816.8,435.2 819.2,435.3 821.7,434.0 824.1,435.4 826.6,434.4 829.0,428.7 831.5,424.2 833.9,423.6 836.4,429.0 838.8,433.1 841.3,434.4 843.7,433.9 846.2,432.9 848.7,433.8 851.1,432.2 853.6,427.3 856.0,426.7 858.5,423.6 860.9,428.9 863.4,432.7 865.8,433.7 868.3,432.3 870.7,434.3 873.2,434.7 875.6,429.3 878.1,424.6 880.5,425.2 883.0,424.7 885.4,432.6 887.9,433.2 890.3,433.6 892.8,435.3 895.2,433.9 897.7,433.9 900.1,430.7 902.6,428.2 905.0,427.0 907.5,430.6 909.9,435.1 912.4,436.8 914.8,435.1 917.3,436.3 919.7,437.3 922.2,436.3 924.6,431.3 927.1,429.0 929.5,428.9 932.0,435.3 932.0,456.7 929.5,463.1 927.1,463.0 924.6,460.7 922.2,455.7 919.7,454.7 917.3,455.7 914.8,456.9 912.4,455.2 909.9,456.9 907.5,461.4 905.0,465.0 902.6,463.8 900.1,461.3 897.7,458.1 895.2,458.1 892.8,456.7 890.3,458.4 887.9,458.8 885.4,459.4 883.0,467.3 880.5,466.8 878.1,467.4 875.6,462.7 873.2,457.3 870.7,457.7 868.3,459.7 865.8,458.3 863.4,459.3 860.9,463.1 858.5,468.4 856.0,465.3 853.6,464.7 851.1,459.8 848.7,458.2 846.2,459.1 843.7,458.1 841.3,457.6 838.8,458.9 836.4,463.0 833.9,468.4 831.5,467.8 829.0,463.3 826.6,457.6 824.1,456.6 821.7,458.0 819.2,456.7 816.8,456.8 814.3,457.3 811.9,460.1 809.4,463.4 807.0,461.7 804.5,459.8 802.1,456.6 799.6,455.8 797.2,456.5 794.7,456.1 792.3,456.2 789.8,458.9 787.4,461.5 784.9,461.4 782.5,461.9 780.0,459.4 777.6,457.0 775.1,457.5 772.7,456.6 770.2,455.7 767.8,457.4 765.3,460.4 762.9,466.0 760.4,463.8 757.9,463.2 755.5,460.9 753.0,458.4 750.6,458.1 748.1,458.2 745.7,458.2 743.2,459.3 740.8,463.6 738.3,466.9 735.9,467.7 733.4,467.1 731.0,462.3 728.5,458.1 726.1,457.9 723.6,458.3 721.2,456.8 718.7,461.9 716.3,463.3 713.8,468.9 711.4,465.2 708.9,461.1 706.5,458.6 704.0,456.8 701.6,457.8 699.1,457.4 696.7,457.0 694.2,460.4 691.8,463.7 689.3,463.4 686.9,464.3 684.4,458.7 682.0,457.0 679.5,456.0 677.1,455.6 674.6,455.1 672.2,456.0 669.7,460.7 667.2,463.5 664.8,461.3 662.3,458.7 659.9,458.5 657.4,456.5 655.0,456.5 652.5,455.6 650.1,455.6 647.6,455.5 645.2,459.1 642.7,466.8 640.3,464.3 637.8,462.8 635.4,456.3 632.9,457.7 630.5,456.2 628.0,458.0 625.6,458.4 623.1,459.3 620.7,468.3 618.2,467.2 615.8,464.2 613.3,462.4 610.9,457.9 608.4,456.5 606.0,458.8 603.5,459.7 601.1,458.7 598.6,462.2 596.2,466.7 593.7,469.4 591.3,467.9 588.8,460.8 586.4,458.0 583.9,460.4 581.4,457.7 579.0,458.2 576.5,458.2 574.1,463.9 571.6,464.9 569.2,467.3 566.7,453.5 564.3,446.0 561.8,446.0 559.4,446.0 556.9,446.0 554.5,446.0 552.0,446.0 549.6,446.0 547.1,446.0 544.7,446.0 542.2,446.0 539.8,446.0 537.3,446.0 534.9,446.0 532.4,450.8 530.0,453.3 527.5,457.4 525.1,457.1 522.6,455.4 520.2,455.2 517.7,459.4 515.3,459.7 512.8,462.9 510.4,462.1 507.9,459.0 505.5,456.4 503.0,455.4 500.6,455.8 498.1,455.6 495.6,456.0 493.2,458.3 490.7,463.0 488.3,463.2 485.8,460.7 483.4,457.9 480.9,456.5 478.5,456.4 476.0,456.5 473.6,456.7 471.1,458.0 468.7,459.9 466.2,463.8 463.8,465.8 461.3,461.0 458.9,457.9 456.4,458.1 454.0,456.6 451.5,457.4 449.1,457.9 446.6,458.6 444.2,463.9 441.7,468.3 439.3,467.6 436.8,461.6 434.4,458.6 431.9,458.1 429.5,457.3 427.0,457.3 424.6,459.7 422.1,461.9 419.7,466.2 417.2,468.3 414.8,465.5 412.3,461.7 409.8,457.8 407.4,455.8 404.9,456.2 402.5,455.9 400.0,455.5 397.6,459.0 395.1,462.5 392.7,462.1 390.2,461.3 387.8,456.8 385.3,454.4 382.9,454.4 380.4,455.8 378.0,455.8 375.5,455.7 373.1,459.2 370.6,463.1 368.2,464.1 365.7,460.7 363.3,455.4 360.8,455.2 358.4,455.3 355.9,455.7 353.5,456.8 351.0,458.6 348.6,462.5 346.1,462.2 343.7,463.3 341.2,461.7 338.8,458.0 336.3,457.2 333.9,456.9 331.4,458.1 329.0,457.8 326.5,462.5 324.1,465.1 321.6,466.7 319.1,466.5 316.7,461.9 314.2,459.0 311.8,459.8 309.3,458.6 306.9,458.3 304.4,458.7 302.0,462.4 299.5,469.4 297.1,468.5 294.6,465.4 292.2,459.1 289.7,458.7 287.3,458.2 284.8,459.4 282.4,459.1 279.9,458.5 277.5,464.4 275.0,466.6 272.6,465.5 270.1,463.5 267.7,457.2 265.2,457.2 262.8,456.2 260.3,456.3 257.9,455.7 255.4,458.6 253.0,463.3 250.5,463.2 248.1,462.6 245.6,458.7 243.2,456.3 240.7,454.7 238.3,455.6 235.8,456.0 233.3,456.0 230.9,459.2 228.4,463.7 226.0,461.4 223.5,461.0 221.1,457.6 218.6,456.8 216.2,457.2 213.7,456.6 211.3,456.7 208.8,456.6 206.4,463.9 203.9,466.6 201.5,464.9 199.0,462.9 196.6,458.6 194.1,457.8 191.7,458.3 189.2,458.9 186.8,457.5 184.3,459.9 181.9,465.4 179.4,467.6 177.0,467.2 174.5,463.3 172.1,458.3 169.6,459.3 167.2,458.6 164.7,459.7 162.3,458.3 159.8,459.9 157.4,465.1 154.9,466.3 152.5,467.4 150.0,454.0" fill="#64748b" opacity="0.56"/>
  </g>
</svg>
